<mxfile host="Electron" modified="2023-12-26T18:54:29.858Z" agent="Mozilla/5.0 (Windows NT 10.0; Win64; x64) AppleWebKit/537.36 (KHTML, like Gecko) draw.io/22.1.11 Chrome/114.0.5735.289 Electron/25.9.8 Safari/537.36" etag="t4lnmfJTXdxgmP8SHu5m" version="22.1.11" type="device">
  <diagram name="Page-1" id="QrfeMC0XmeMvJih-Uujk">
    <mxGraphModel dx="1091" dy="638" grid="1" gridSize="10" guides="1" tooltips="1" connect="1" arrows="1" fold="1" page="1" pageScale="1" pageWidth="1169" pageHeight="1654" math="0" shadow="0">
      <root>
        <mxCell id="0" />
        <mxCell id="1" parent="0" />
        <mxCell id="-6X77NsXpm_7NcP1Wvli-1" value="User" style="swimlane;fontStyle=1;align=center;verticalAlign=top;childLayout=stackLayout;horizontal=1;startSize=26;horizontalStack=0;resizeParent=1;resizeParentMax=0;resizeLast=0;collapsible=1;marginBottom=0;whiteSpace=wrap;html=1;" parent="1" vertex="1">
          <mxGeometry x="320" y="100" width="270" height="134" as="geometry" />
        </mxCell>
        <mxCell id="-6X77NsXpm_7NcP1Wvli-2" value="- name: string&lt;br&gt;- password: string&lt;br&gt;- gender: string&lt;br&gt;- email: string" style="text;strokeColor=none;fillColor=none;align=left;verticalAlign=top;spacingLeft=4;spacingRight=4;overflow=hidden;rotatable=0;points=[[0,0.5],[1,0.5]];portConstraint=eastwest;whiteSpace=wrap;html=1;" parent="-6X77NsXpm_7NcP1Wvli-1" vertex="1">
          <mxGeometry y="26" width="270" height="74" as="geometry" />
        </mxCell>
        <mxCell id="-6X77NsXpm_7NcP1Wvli-3" value="" style="line;strokeWidth=1;fillColor=none;align=left;verticalAlign=middle;spacingTop=-1;spacingLeft=3;spacingRight=3;rotatable=0;labelPosition=right;points=[];portConstraint=eastwest;strokeColor=inherit;" parent="-6X77NsXpm_7NcP1Wvli-1" vertex="1">
          <mxGeometry y="100" width="270" height="8" as="geometry" />
        </mxCell>
        <mxCell id="-6X77NsXpm_7NcP1Wvli-4" value="+ login(email:string, password:string): boolean" style="text;strokeColor=none;fillColor=none;align=left;verticalAlign=top;spacingLeft=4;spacingRight=4;overflow=hidden;rotatable=0;points=[[0,0.5],[1,0.5]];portConstraint=eastwest;whiteSpace=wrap;html=1;" parent="-6X77NsXpm_7NcP1Wvli-1" vertex="1">
          <mxGeometry y="108" width="270" height="26" as="geometry" />
        </mxCell>
        <mxCell id="-6X77NsXpm_7NcP1Wvli-26" style="edgeStyle=orthogonalEdgeStyle;rounded=0;orthogonalLoop=1;jettySize=auto;html=1;exitX=0.5;exitY=0;exitDx=0;exitDy=0;endArrow=none;endFill=0;" parent="1" source="-6X77NsXpm_7NcP1Wvli-5" edge="1">
          <mxGeometry relative="1" as="geometry">
            <mxPoint x="455.3103448275863" y="270" as="targetPoint" />
          </mxGeometry>
        </mxCell>
        <mxCell id="-6X77NsXpm_7NcP1Wvli-5" value="Customer" style="swimlane;fontStyle=1;align=center;verticalAlign=top;childLayout=stackLayout;horizontal=1;startSize=26;horizontalStack=0;resizeParent=1;resizeParentMax=0;resizeLast=0;collapsible=1;marginBottom=0;whiteSpace=wrap;html=1;" parent="1" vertex="1">
          <mxGeometry x="300" y="300" width="310" height="180" as="geometry" />
        </mxCell>
        <mxCell id="-6X77NsXpm_7NcP1Wvli-6" value="- address: string" style="text;strokeColor=none;fillColor=none;align=left;verticalAlign=top;spacingLeft=4;spacingRight=4;overflow=hidden;rotatable=0;points=[[0,0.5],[1,0.5]];portConstraint=eastwest;whiteSpace=wrap;html=1;" parent="-6X77NsXpm_7NcP1Wvli-5" vertex="1">
          <mxGeometry y="26" width="310" height="26" as="geometry" />
        </mxCell>
        <mxCell id="-6X77NsXpm_7NcP1Wvli-7" value="" style="line;strokeWidth=1;fillColor=none;align=left;verticalAlign=middle;spacingTop=-1;spacingLeft=3;spacingRight=3;rotatable=0;labelPosition=right;points=[];portConstraint=eastwest;strokeColor=inherit;" parent="-6X77NsXpm_7NcP1Wvli-5" vertex="1">
          <mxGeometry y="52" width="310" height="8" as="geometry" />
        </mxCell>
        <mxCell id="-6X77NsXpm_7NcP1Wvli-8" value="+ add_to_cart(product_name:string, product_catrgory:string, product_price: int): void&lt;br&gt;+&amp;nbsp;purchase&lt;span style=&quot;background-color: initial;&quot;&gt;(user_id: int): void&lt;/span&gt;&lt;br&gt;+ registration(user_obj: user, customer_address:string): void&lt;br&gt;+ remove_from_cart(user_id: int, product_id:int): void&lt;br&gt;+&amp;nbsp;buy_product(user_id: int, product_id:int): void" style="text;strokeColor=none;fillColor=none;align=left;verticalAlign=top;spacingLeft=4;spacingRight=4;overflow=hidden;rotatable=0;points=[[0,0.5],[1,0.5]];portConstraint=eastwest;whiteSpace=wrap;html=1;" parent="-6X77NsXpm_7NcP1Wvli-5" vertex="1">
          <mxGeometry y="60" width="310" height="120" as="geometry" />
        </mxCell>
        <mxCell id="-6X77NsXpm_7NcP1Wvli-9" value="Admin" style="swimlane;fontStyle=1;align=center;verticalAlign=top;childLayout=stackLayout;horizontal=1;startSize=26;horizontalStack=0;resizeParent=1;resizeParentMax=0;resizeLast=0;collapsible=1;marginBottom=0;whiteSpace=wrap;html=1;" parent="1" vertex="1">
          <mxGeometry x="20" y="300" width="270" height="140" as="geometry" />
        </mxCell>
        <mxCell id="-6X77NsXpm_7NcP1Wvli-10" value="&amp;nbsp;&lt;br&gt;" style="text;strokeColor=none;fillColor=none;align=left;verticalAlign=top;spacingLeft=4;spacingRight=4;overflow=hidden;rotatable=0;points=[[0,0.5],[1,0.5]];portConstraint=eastwest;whiteSpace=wrap;html=1;" parent="-6X77NsXpm_7NcP1Wvli-9" vertex="1">
          <mxGeometry y="26" width="270" height="26" as="geometry" />
        </mxCell>
        <mxCell id="-6X77NsXpm_7NcP1Wvli-11" value="" style="line;strokeWidth=1;fillColor=none;align=left;verticalAlign=middle;spacingTop=-1;spacingLeft=3;spacingRight=3;rotatable=0;labelPosition=right;points=[];portConstraint=eastwest;strokeColor=inherit;" parent="-6X77NsXpm_7NcP1Wvli-9" vertex="1">
          <mxGeometry y="52" width="270" height="8" as="geometry" />
        </mxCell>
        <mxCell id="-6X77NsXpm_7NcP1Wvli-12" value="+ add_product(product_obj: product, category_obj: category): boolean&lt;br&gt;+ remove_product(product_obj: product): boolean&lt;br&gt;+ show_all_products(): void" style="text;strokeColor=none;fillColor=none;align=left;verticalAlign=top;spacingLeft=4;spacingRight=4;overflow=hidden;rotatable=0;points=[[0,0.5],[1,0.5]];portConstraint=eastwest;whiteSpace=wrap;html=1;" parent="-6X77NsXpm_7NcP1Wvli-9" vertex="1">
          <mxGeometry y="60" width="270" height="80" as="geometry" />
        </mxCell>
        <mxCell id="-6X77NsXpm_7NcP1Wvli-15" value="" style="endArrow=block;endSize=16;endFill=0;html=1;rounded=0;exitX=0.5;exitY=0;exitDx=0;exitDy=0;entryX=0.5;entryY=1;entryDx=0;entryDy=0;" parent="1" source="-6X77NsXpm_7NcP1Wvli-9" target="-6X77NsXpm_7NcP1Wvli-1" edge="1">
          <mxGeometry width="160" relative="1" as="geometry">
            <mxPoint x="160" y="300" as="sourcePoint" />
            <mxPoint x="455" y="240" as="targetPoint" />
            <Array as="points">
              <mxPoint x="155" y="270" />
              <mxPoint x="455" y="270" />
            </Array>
          </mxGeometry>
        </mxCell>
        <mxCell id="-6X77NsXpm_7NcP1Wvli-20" value="Delvariy Man" style="swimlane;fontStyle=1;align=center;verticalAlign=top;childLayout=stackLayout;horizontal=1;startSize=26;horizontalStack=0;resizeParent=1;resizeParentMax=0;resizeLast=0;collapsible=1;marginBottom=0;whiteSpace=wrap;html=1;" parent="1" vertex="1">
          <mxGeometry x="620" y="300" width="240" height="100" as="geometry" />
        </mxCell>
        <mxCell id="-6X77NsXpm_7NcP1Wvli-21" value="&amp;nbsp;&lt;br&gt;" style="text;strokeColor=none;fillColor=none;align=left;verticalAlign=top;spacingLeft=4;spacingRight=4;overflow=hidden;rotatable=0;points=[[0,0.5],[1,0.5]];portConstraint=eastwest;whiteSpace=wrap;html=1;" parent="-6X77NsXpm_7NcP1Wvli-20" vertex="1">
          <mxGeometry y="26" width="240" height="26" as="geometry" />
        </mxCell>
        <mxCell id="-6X77NsXpm_7NcP1Wvli-22" value="" style="line;strokeWidth=1;fillColor=none;align=left;verticalAlign=middle;spacingTop=-1;spacingLeft=3;spacingRight=3;rotatable=0;labelPosition=right;points=[];portConstraint=eastwest;strokeColor=inherit;" parent="-6X77NsXpm_7NcP1Wvli-20" vertex="1">
          <mxGeometry y="52" width="240" height="8" as="geometry" />
        </mxCell>
        <mxCell id="-6X77NsXpm_7NcP1Wvli-23" value="+ deliver_order(order_number:order): void&lt;br&gt;+ show_all_orders() : void" style="text;strokeColor=none;fillColor=none;align=left;verticalAlign=top;spacingLeft=4;spacingRight=4;overflow=hidden;rotatable=0;points=[[0,0.5],[1,0.5]];portConstraint=eastwest;whiteSpace=wrap;html=1;" parent="-6X77NsXpm_7NcP1Wvli-20" vertex="1">
          <mxGeometry y="60" width="240" height="40" as="geometry" />
        </mxCell>
        <mxCell id="-6X77NsXpm_7NcP1Wvli-24" value="" style="endArrow=none;html=1;rounded=0;entryX=0.5;entryY=0;entryDx=0;entryDy=0;" parent="1" target="-6X77NsXpm_7NcP1Wvli-20" edge="1">
          <mxGeometry width="50" height="50" relative="1" as="geometry">
            <mxPoint x="450" y="270" as="sourcePoint" />
            <mxPoint x="510" y="340" as="targetPoint" />
            <Array as="points">
              <mxPoint x="740" y="270" />
            </Array>
          </mxGeometry>
        </mxCell>
        <mxCell id="-6X77NsXpm_7NcP1Wvli-27" value="Product" style="swimlane;fontStyle=1;align=center;verticalAlign=top;childLayout=stackLayout;horizontal=1;startSize=26;horizontalStack=0;resizeParent=1;resizeParentMax=0;resizeLast=0;collapsible=1;marginBottom=0;whiteSpace=wrap;html=1;" parent="1" vertex="1">
          <mxGeometry x="20" y="610" width="310" height="170" as="geometry" />
        </mxCell>
        <mxCell id="-6X77NsXpm_7NcP1Wvli-28" value="- product_name: string&lt;br&gt;- product_price: float&lt;br&gt;- product_discount: int&lt;br&gt;- product_details: string&lt;br&gt;- product_image: string&lt;br&gt;- no_of_pices: int" style="text;strokeColor=none;fillColor=none;align=left;verticalAlign=top;spacingLeft=4;spacingRight=4;overflow=hidden;rotatable=0;points=[[0,0.5],[1,0.5]];portConstraint=eastwest;whiteSpace=wrap;html=1;" parent="-6X77NsXpm_7NcP1Wvli-27" vertex="1">
          <mxGeometry y="26" width="310" height="104" as="geometry" />
        </mxCell>
        <mxCell id="-6X77NsXpm_7NcP1Wvli-29" value="" style="line;strokeWidth=1;fillColor=none;align=left;verticalAlign=middle;spacingTop=-1;spacingLeft=3;spacingRight=3;rotatable=0;labelPosition=right;points=[];portConstraint=eastwest;strokeColor=inherit;" parent="-6X77NsXpm_7NcP1Wvli-27" vertex="1">
          <mxGeometry y="130" width="310" height="8" as="geometry" />
        </mxCell>
        <mxCell id="-6X77NsXpm_7NcP1Wvli-30" value="+&amp;nbsp;show_product_information&lt;span style=&quot;background-color: initial;&quot;&gt;(product_obj: product): void&lt;/span&gt;" style="text;strokeColor=none;fillColor=none;align=left;verticalAlign=top;spacingLeft=4;spacingRight=4;overflow=hidden;rotatable=0;points=[[0,0.5],[1,0.5]];portConstraint=eastwest;whiteSpace=wrap;html=1;" parent="-6X77NsXpm_7NcP1Wvli-27" vertex="1">
          <mxGeometry y="138" width="310" height="32" as="geometry" />
        </mxCell>
        <mxCell id="-6X77NsXpm_7NcP1Wvli-34" value="*" style="text;html=1;align=center;verticalAlign=middle;resizable=0;points=[];autosize=1;strokeColor=none;fillColor=none;" parent="1" vertex="1">
          <mxGeometry x="150" y="580" width="30" height="30" as="geometry" />
        </mxCell>
        <mxCell id="-6X77NsXpm_7NcP1Wvli-35" value="Order" style="swimlane;fontStyle=1;align=center;verticalAlign=top;childLayout=stackLayout;horizontal=1;startSize=26;horizontalStack=0;resizeParent=1;resizeParentMax=0;resizeLast=0;collapsible=1;marginBottom=0;whiteSpace=wrap;html=1;" parent="1" vertex="1">
          <mxGeometry x="345" y="610" width="220" height="150" as="geometry" />
        </mxCell>
        <mxCell id="-6X77NsXpm_7NcP1Wvli-36" value="- user_id: int&lt;br&gt;- product_id: int&lt;br&gt;- date: string&lt;br&gt;- order_number: int&lt;br&gt;- order_state" style="text;strokeColor=none;fillColor=none;align=left;verticalAlign=top;spacingLeft=4;spacingRight=4;overflow=hidden;rotatable=0;points=[[0,0.5],[1,0.5]];portConstraint=eastwest;whiteSpace=wrap;html=1;" parent="-6X77NsXpm_7NcP1Wvli-35" vertex="1">
          <mxGeometry y="26" width="220" height="84" as="geometry" />
        </mxCell>
        <mxCell id="-6X77NsXpm_7NcP1Wvli-37" value="" style="line;strokeWidth=1;fillColor=none;align=left;verticalAlign=middle;spacingTop=-1;spacingLeft=3;spacingRight=3;rotatable=0;labelPosition=right;points=[];portConstraint=eastwest;strokeColor=inherit;" parent="-6X77NsXpm_7NcP1Wvli-35" vertex="1">
          <mxGeometry y="110" width="220" height="8" as="geometry" />
        </mxCell>
        <mxCell id="-6X77NsXpm_7NcP1Wvli-38" value="+ make_an_order(): void" style="text;strokeColor=none;fillColor=none;align=left;verticalAlign=top;spacingLeft=4;spacingRight=4;overflow=hidden;rotatable=0;points=[[0,0.5],[1,0.5]];portConstraint=eastwest;whiteSpace=wrap;html=1;" parent="-6X77NsXpm_7NcP1Wvli-35" vertex="1">
          <mxGeometry y="118" width="220" height="32" as="geometry" />
        </mxCell>
        <mxCell id="-6X77NsXpm_7NcP1Wvli-42" value="" style="endArrow=none;html=1;rounded=0;exitX=0.25;exitY=0;exitDx=0;exitDy=0;entryX=0.75;entryY=0;entryDx=0;entryDy=0;endFill=0;startArrow=none;startFill=0;" parent="1" source="-6X77NsXpm_7NcP1Wvli-35" target="-6X77NsXpm_7NcP1Wvli-27" edge="1">
          <mxGeometry width="50" height="50" relative="1" as="geometry">
            <mxPoint x="402.5" y="610" as="sourcePoint" />
            <mxPoint x="199.9999999999999" y="610" as="targetPoint" />
            <Array as="points">
              <mxPoint x="400" y="560" />
              <mxPoint x="252" y="560" />
            </Array>
          </mxGeometry>
        </mxCell>
        <mxCell id="-6X77NsXpm_7NcP1Wvli-43" value="*" style="text;html=1;align=center;verticalAlign=middle;resizable=0;points=[];autosize=1;strokeColor=none;fillColor=none;" parent="1" vertex="1">
          <mxGeometry x="230" y="578" width="30" height="30" as="geometry" />
        </mxCell>
        <mxCell id="-6X77NsXpm_7NcP1Wvli-44" value="*" style="text;html=1;align=center;verticalAlign=middle;resizable=0;points=[];autosize=1;strokeColor=none;fillColor=none;" parent="1" vertex="1">
          <mxGeometry x="395" y="578" width="30" height="30" as="geometry" />
        </mxCell>
        <mxCell id="-6X77NsXpm_7NcP1Wvli-45" value="" style="endArrow=none;html=1;rounded=0;exitX=0.75;exitY=0;exitDx=0;exitDy=0;entryX=0.678;entryY=1.01;entryDx=0;entryDy=0;entryPerimeter=0;endFill=0;startArrow=none;startFill=0;" parent="1" source="-6X77NsXpm_7NcP1Wvli-35" target="-6X77NsXpm_7NcP1Wvli-8" edge="1">
          <mxGeometry width="50" height="50" relative="1" as="geometry">
            <mxPoint x="350" y="550" as="sourcePoint" />
            <mxPoint x="400" y="500" as="targetPoint" />
          </mxGeometry>
        </mxCell>
        <mxCell id="-6X77NsXpm_7NcP1Wvli-46" value="*" style="text;html=1;align=center;verticalAlign=middle;resizable=0;points=[];autosize=1;strokeColor=none;fillColor=none;" parent="1" vertex="1">
          <mxGeometry x="510" y="480" width="30" height="30" as="geometry" />
        </mxCell>
        <mxCell id="-6X77NsXpm_7NcP1Wvli-47" value="*" style="text;html=1;align=center;verticalAlign=middle;resizable=0;points=[];autosize=1;strokeColor=none;fillColor=none;" parent="1" vertex="1">
          <mxGeometry x="510" y="580" width="30" height="30" as="geometry" />
        </mxCell>
        <mxCell id="BO89QcdlxROEMnOqxEOi-1" value="Category" style="swimlane;fontStyle=1;align=center;verticalAlign=top;childLayout=stackLayout;horizontal=1;startSize=26;horizontalStack=0;resizeParent=1;resizeParentMax=0;resizeLast=0;collapsible=1;marginBottom=0;whiteSpace=wrap;html=1;" parent="1" vertex="1">
          <mxGeometry x="580" y="610" width="220" height="86" as="geometry" />
        </mxCell>
        <mxCell id="BO89QcdlxROEMnOqxEOi-2" value="- category_name: string" style="text;strokeColor=none;fillColor=none;align=left;verticalAlign=top;spacingLeft=4;spacingRight=4;overflow=hidden;rotatable=0;points=[[0,0.5],[1,0.5]];portConstraint=eastwest;whiteSpace=wrap;html=1;" parent="BO89QcdlxROEMnOqxEOi-1" vertex="1">
          <mxGeometry y="26" width="220" height="26" as="geometry" />
        </mxCell>
        <mxCell id="BO89QcdlxROEMnOqxEOi-3" value="" style="line;strokeWidth=1;fillColor=none;align=left;verticalAlign=middle;spacingTop=-1;spacingLeft=3;spacingRight=3;rotatable=0;labelPosition=right;points=[];portConstraint=eastwest;strokeColor=inherit;" parent="BO89QcdlxROEMnOqxEOi-1" vertex="1">
          <mxGeometry y="52" width="220" height="8" as="geometry" />
        </mxCell>
        <mxCell id="BO89QcdlxROEMnOqxEOi-4" value="+ show_all_products(): void" style="text;strokeColor=none;fillColor=none;align=left;verticalAlign=top;spacingLeft=4;spacingRight=4;overflow=hidden;rotatable=0;points=[[0,0.5],[1,0.5]];portConstraint=eastwest;whiteSpace=wrap;html=1;" parent="BO89QcdlxROEMnOqxEOi-1" vertex="1">
          <mxGeometry y="60" width="220" height="26" as="geometry" />
        </mxCell>
        <mxCell id="BO89QcdlxROEMnOqxEOi-9" value="" style="endArrow=none;html=1;rounded=0;exitX=0.633;exitY=-0.008;exitDx=0;exitDy=0;exitPerimeter=0;entryX=0.25;entryY=0;entryDx=0;entryDy=0;endFill=0;startArrow=none;startFill=0;" parent="1" source="-6X77NsXpm_7NcP1Wvli-27" target="BO89QcdlxROEMnOqxEOi-1" edge="1">
          <mxGeometry width="50" height="50" relative="1" as="geometry">
            <mxPoint x="410" y="690" as="sourcePoint" />
            <mxPoint x="216" y="520" as="targetPoint" />
            <Array as="points">
              <mxPoint x="216" y="540" />
              <mxPoint x="635" y="540" />
            </Array>
          </mxGeometry>
        </mxCell>
        <mxCell id="BO89QcdlxROEMnOqxEOi-10" value="1" style="text;html=1;align=center;verticalAlign=middle;resizable=0;points=[];autosize=1;strokeColor=none;fillColor=none;" parent="1" vertex="1">
          <mxGeometry x="635" y="578" width="30" height="30" as="geometry" />
        </mxCell>
        <mxCell id="BO89QcdlxROEMnOqxEOi-11" value="*" style="text;html=1;align=center;verticalAlign=middle;resizable=0;points=[];autosize=1;strokeColor=none;fillColor=none;" parent="1" vertex="1">
          <mxGeometry x="195" y="578" width="30" height="30" as="geometry" />
        </mxCell>
        <mxCell id="L0UdzQDZi_x8qFxv6QoF-1" style="edgeStyle=orthogonalEdgeStyle;rounded=0;orthogonalLoop=1;jettySize=auto;html=1;exitX=0.5;exitY=0;exitDx=0;exitDy=0;entryX=0.542;entryY=1;entryDx=0;entryDy=0;entryPerimeter=0;endArrow=none;endFill=0;" parent="1" source="-6X77NsXpm_7NcP1Wvli-35" target="-6X77NsXpm_7NcP1Wvli-23" edge="1">
          <mxGeometry relative="1" as="geometry">
            <Array as="points">
              <mxPoint x="455" y="520" />
              <mxPoint x="750" y="520" />
            </Array>
          </mxGeometry>
        </mxCell>
        <mxCell id="L0UdzQDZi_x8qFxv6QoF-2" value="1" style="text;html=1;align=center;verticalAlign=middle;resizable=0;points=[];autosize=1;strokeColor=none;fillColor=none;" parent="1" vertex="1">
          <mxGeometry x="745" y="398" width="30" height="30" as="geometry" />
        </mxCell>
        <mxCell id="L0UdzQDZi_x8qFxv6QoF-3" value="*" style="text;html=1;align=center;verticalAlign=middle;resizable=0;points=[];autosize=1;strokeColor=none;fillColor=none;" parent="1" vertex="1">
          <mxGeometry x="455" y="580" width="30" height="30" as="geometry" />
        </mxCell>
        <mxCell id="u6_0YQ48USx0bE4fpiOn-7" value="" style="endArrow=none;html=1;rounded=0;entryX=0.5;entryY=0;entryDx=0;entryDy=0;exitX=0.574;exitY=1.006;exitDx=0;exitDy=0;exitPerimeter=0;" parent="1" source="-6X77NsXpm_7NcP1Wvli-12" target="-6X77NsXpm_7NcP1Wvli-27" edge="1">
          <mxGeometry width="50" height="50" relative="1" as="geometry">
            <mxPoint x="175" y="450" as="sourcePoint" />
            <mxPoint x="280" y="470" as="targetPoint" />
          </mxGeometry>
        </mxCell>
        <mxCell id="u6_0YQ48USx0bE4fpiOn-8" value="1" style="text;html=1;align=center;verticalAlign=middle;resizable=0;points=[];autosize=1;strokeColor=none;fillColor=none;" parent="1" vertex="1">
          <mxGeometry x="149" y="438" width="30" height="30" as="geometry" />
        </mxCell>
      </root>
    </mxGraphModel>
  </diagram>
</mxfile>
